<svg width="126" height="120" viewBox="0 0 126 120" fill="none">
<g filter="url(#filter0_d_15_119)">
<path d="M3.25098 53.585H4.93555C5.27734 59.835 7.79199 64.9863 12.4795 69.0391C17.0693 73.043 22.3428 75.0449 28.2998 75.0449C32.8896 75.0449 36.625 73.751 39.5059 71.1631C42.3867 68.5752 43.8271 65.4746 43.8271 61.8613C43.8271 58.0527 42.4355 55.0986 39.6523 52.999C36.9668 50.9482 31.6689 48.6289 23.7588 46.041C17.4111 43.9414 12.8945 42.208 10.209 40.8408C7.08398 39.2295 4.64258 37.0566 2.88477 34.3223C0.980469 31.5391 0.0283203 28.4141 0.0283203 24.9473C0.0283203 21.0898 1.32227 17.3057 3.91016 13.5947C3.32422 15.499 3.03125 17.1592 3.03125 18.5752C3.03125 22.3838 3.93457 25.7285 5.74121 28.6094C7.59668 31.5879 9.8916 33.834 12.626 35.3477C15.3604 36.9102 19.9258 38.6924 26.3223 40.6943C34.6719 43.2334 40.7021 46.041 44.4131 49.1172C47.9775 52.0957 49.7598 56.0996 49.7598 61.1289C49.7598 66.0605 47.9043 70.5283 44.1934 74.5322C40.4336 78.585 34.8184 80.6113 27.3477 80.6113C24.3203 80.6113 20.1211 80.0498 14.75 78.9268C10.0625 77.9502 6.54688 77.4375 4.20312 77.3887L3.69043 76.8027C3.73926 75.9727 3.76367 74.8984 3.76367 73.5801C3.76367 72.0176 3.61719 69.6006 3.32422 66.3291C3.08008 63.0576 2.95801 60.6162 2.95801 59.0049C2.95801 56.9053 3.05566 55.0986 3.25098 53.585ZM54.96 22.9697H53.4219C53.373 17.3057 51.127 13.1064 46.6836 10.3721C42.3379 7.68652 37.0645 6.34375 30.8633 6.34375C25.9316 6.34375 21.8789 7.39355 18.7051 9.49316C15.4824 11.5928 13.8711 14.1074 13.8711 17.0371C13.8711 20.1621 15.1406 22.6279 17.6797 24.4346C20.3164 26.3877 25.5166 28.707 33.2803 31.3926C40.5068 33.8828 45.5605 35.9092 48.4414 37.4717C51.5176 39.1807 54.0811 41.6221 56.1318 44.7959C58.1826 48.0674 59.208 51.7051 59.208 55.709C59.208 61.8125 56.9619 66.5977 52.4697 70.0645C54.1299 67.7695 54.96 64.5469 54.96 60.3965C54.96 56.4902 54.0566 53.0234 52.25 49.9961C50.3457 46.9199 48.002 44.4785 45.2188 42.6719C42.3867 40.8164 37.7725 38.8389 31.376 36.7393C21.7568 33.5654 15.4824 30.8555 12.5527 28.6094C9.62305 26.3145 8.1582 22.75 8.1582 17.916C8.1582 12.3496 10.4043 7.97949 14.8965 4.80566C19.3887 1.72949 25.7607 0.191406 34.0127 0.191406C39.6279 0.191406 46.4883 1.16797 54.5938 3.12109V3.63379L54.7402 6.41699C54.7402 7.88184 54.7891 9.63965 54.8867 11.6904C55.0332 14.1807 55.1064 16.3779 55.1064 18.2822C55.1064 19.5518 55.0576 21.1143 54.96 22.9697ZM83.8906 1.80273V58.6387C83.8906 68.6484 82.9873 76.7539 81.1807 82.9551C79.374 89.2539 75.7607 94.7471 70.3408 99.4346C64.9209 104.122 58.5 106.979 51.0781 108.004V106.759C57.5723 103.634 62.8701 99.8984 66.9717 95.5527C71.0244 91.3047 73.8809 86.6172 75.541 81.4902C77.1523 76.4121 77.958 69.8691 77.958 61.8613V18.1357C77.958 12.96 77.2988 9.24902 75.9805 7.00293C74.5645 4.75684 72.0254 3.24316 68.3633 2.46191V0.923828C75.2969 1.41211 80.4727 1.70508 83.8906 1.80273ZM105.131 0.923828V2.24219C101.322 2.92578 98.7344 4.36621 97.3672 6.56348C96 8.80957 95.3164 12.3008 95.3164 17.0371V57.833C95.3164 64.5713 95.6826 69.3076 96.415 72.042C97.0498 74.7764 98.2461 77.0957 100.004 79C96.5859 79 93.9492 79.4639 92.0938 80.3916C90.1406 81.3682 87.7236 83.5654 84.8428 86.9834C86.5029 84.0049 87.6748 80.6846 88.3584 77.0225C88.9932 73.5557 89.3105 67.6963 89.3105 59.4443V1.80273C93.2656 1.70508 98.5391 1.41211 105.131 0.923828Z" fill="url(#paint0_angular_15_119)" shape-rendering="crispEdges"/>
<path d="M-4 97.75H110.111V105.221H-4V97.75Z" fill="url(#paint1_angular_15_119)" shape-rendering="crispEdges"/>
<path d="M3.25098 53.585V52.585H2.37172L2.2592 53.457L3.25098 53.585ZM4.93555 53.585L5.93405 53.5304L5.88235 52.585H4.93555V53.585ZM12.4795 69.0391L13.1369 68.2855L13.1335 68.2826L12.4795 69.0391ZM39.6523 52.999L39.0454 53.7938L39.0501 53.7973L39.6523 52.999ZM23.7588 46.041L23.4448 46.9904L23.4478 46.9914L23.7588 46.041ZM10.209 40.8408L9.75069 41.7296L9.7553 41.732L10.209 40.8408ZM2.88477 34.3223L3.72594 33.7815L3.71818 33.7694L3.71007 33.7576L2.88477 34.3223ZM3.91016 13.5947L4.86594 13.8888L3.08991 13.0227L3.91016 13.5947ZM5.74121 28.6094L6.58999 28.0806L6.5884 28.0781L5.74121 28.6094ZM12.626 35.3477L13.1222 34.4793L13.1103 34.4728L12.626 35.3477ZM26.3223 40.6943L26.0236 41.6487L26.0313 41.6511L26.3223 40.6943ZM44.4131 49.1172L45.0543 48.3498L45.0513 48.3473L44.4131 49.1172ZM44.1934 74.5322L44.9265 75.2123L44.9268 75.212L44.1934 74.5322ZM14.75 78.9268L14.9547 77.9479L14.954 77.9478L14.75 78.9268ZM4.20312 77.3887L3.45055 78.0472L3.74112 78.3793L4.1823 78.3885L4.20312 77.3887ZM3.69043 76.8027L2.69216 76.744L2.6681 77.153L2.93785 77.4612L3.69043 76.8027ZM3.32422 66.3291L2.32699 66.4035L2.32754 66.4109L2.3282 66.4183L3.32422 66.3291ZM54.96 22.9697V23.9697H55.9087L55.9586 23.0223L54.96 22.9697ZM53.4219 22.9697L52.4219 22.9783L52.4305 23.9697H53.4219V22.9697ZM46.6836 10.3721L46.1579 11.2227L46.1595 11.2237L46.6836 10.3721ZM18.7051 9.49316L19.251 10.331L19.2568 10.3272L18.7051 9.49316ZM17.6797 24.4346L18.2749 23.631L18.2672 23.6253L18.2594 23.6198L17.6797 24.4346ZM33.2803 31.3926L32.9534 32.3376L32.9545 32.338L33.2803 31.3926ZM48.4414 37.4717L48.9271 36.5975L48.9182 36.5926L48.4414 37.4717ZM56.1318 44.7959L56.9792 44.2647L56.9718 44.2532L56.1318 44.7959ZM52.4697 70.0645L51.6595 69.4783L53.0807 70.8561L52.4697 70.0645ZM52.25 49.9961L53.1087 49.4836L53.1045 49.4767L53.1003 49.4697L52.25 49.9961ZM45.2188 42.6719L44.6707 43.5083L44.6743 43.5107L45.2188 42.6719ZM31.376 36.7393L31.0626 37.6889L31.0641 37.6894L31.376 36.7393ZM12.5527 28.6094L11.936 29.3966L11.9443 29.403L12.5527 28.6094ZM14.8965 4.80566L14.3315 3.98058L14.3254 3.98472L14.3195 3.98894L14.8965 4.80566ZM54.5938 3.12109H55.5938V2.33344L54.828 2.14892L54.5938 3.12109ZM54.5938 3.63379H53.5938V3.66009L53.5951 3.68635L54.5938 3.63379ZM54.7402 6.41699H55.7402V6.39069L55.7389 6.36443L54.7402 6.41699ZM54.8867 11.6904L53.8878 11.738L53.8884 11.7492L54.8867 11.6904ZM3.25098 54.585H4.93555V52.585H3.25098V54.585ZM3.93704 53.6396C4.29349 60.1575 6.93031 65.5633 11.8255 69.7955L13.1335 68.2826C8.65368 64.4094 6.2612 59.5125 5.93405 53.5304L3.93704 53.6396ZM11.8221 69.7926C16.5896 73.9515 22.0952 76.0449 28.2998 76.0449V74.0449C22.5904 74.0449 17.5491 72.1344 13.1369 68.2855L11.8221 69.7926ZM28.2998 76.0449C33.088 76.0449 37.0767 74.6894 40.1741 71.907L38.8376 70.4192C36.1733 72.8125 32.6912 74.0449 28.2998 74.0449V76.0449ZM40.1741 71.907C43.2491 69.1448 44.8271 65.7806 44.8271 61.8613H42.8271C42.8271 65.1686 41.5244 68.0056 38.8376 70.4192L40.1741 71.907ZM44.8271 61.8613C44.8271 57.7725 43.3139 54.5086 40.2546 52.2007L39.0501 53.7973C41.5572 55.6887 42.8271 58.333 42.8271 61.8613H44.8271ZM40.2593 52.2043C37.4239 50.0391 31.9753 47.677 24.0697 45.0906L23.4478 46.9914C31.3625 49.5808 36.5097 51.8574 39.0454 53.7938L40.2593 52.2043ZM24.0728 45.0916C17.7298 42.9935 13.2755 41.2798 10.6627 39.9497L9.7553 41.732C12.5136 43.1362 17.0925 44.8893 23.4448 46.9904L24.0728 45.0916ZM10.6673 39.952C7.68509 38.4143 5.38119 36.3563 3.72594 33.7815L2.04359 34.863C3.90397 37.757 6.48288 40.0447 9.7507 41.7296L10.6673 39.952ZM3.71007 33.7576C1.92292 31.1456 1.02832 28.2185 1.02832 24.9473H-0.97168C-0.97168 28.6096 0.0380156 31.9325 2.05946 34.8869L3.71007 33.7576ZM1.02832 24.9473C1.02832 21.328 2.23875 17.7397 4.7304 14.1667L3.08991 13.0227C0.405779 16.8717 -0.97168 20.8517 -0.97168 24.9473H1.02832ZM2.95438 13.3006C2.35006 15.2647 2.03125 17.0281 2.03125 18.5752H4.03125C4.03125 17.2902 4.29838 15.7334 4.86594 13.8888L2.95438 13.3006ZM2.03125 18.5752C2.03125 22.5485 2.97587 26.082 4.89402 29.1407L6.5884 28.0781C4.89327 25.375 4.03125 22.2191 4.03125 18.5752H2.03125ZM4.89243 29.1381C6.82668 32.2431 9.24073 34.6167 12.1417 36.2225L13.1103 34.4728C10.5425 33.0513 8.36668 30.9327 6.58999 28.0806L4.89243 29.1381ZM12.1298 36.2159C14.964 37.8354 19.6173 39.6437 26.0236 41.6487L26.621 39.74C20.2342 37.7411 15.7567 35.9849 13.1221 34.4794L12.1298 36.2159ZM26.0313 41.6511C34.3401 44.1777 40.2181 46.9386 43.7749 49.8871L45.0513 48.3473C41.1862 45.1434 35.0036 42.2891 26.6132 39.7376L26.0313 41.6511ZM43.7719 49.8845C47.0884 52.6559 48.7598 56.3681 48.7598 61.1289H50.7598C50.7598 55.8312 48.8667 51.5355 45.0543 48.3498L43.7719 49.8845ZM48.7598 61.1289C48.7598 65.7807 47.0194 70.012 43.4599 73.8525L44.9268 75.212C48.7892 71.0446 50.7598 66.3404 50.7598 61.1289H48.7598ZM43.4603 73.8521C39.9493 77.6367 34.6419 79.6113 27.3477 79.6113V81.6113C34.9949 81.6113 40.9179 79.5333 44.9265 75.2123L43.4603 73.8521ZM27.3477 79.6113C24.4233 79.6113 20.3033 79.0663 14.9547 77.9479L14.5453 79.9056C19.9389 81.0333 24.2173 81.6113 27.3477 81.6113V79.6113ZM14.954 77.9478C10.2548 76.9688 6.66442 76.4397 4.22395 76.3889L4.1823 78.3885C6.42933 78.4353 9.87015 78.9316 14.546 79.9057L14.954 77.9478ZM4.9557 76.7302L4.44301 76.1442L2.93785 77.4612L3.45055 78.0472L4.9557 76.7302ZM4.6887 76.8615C4.73914 76.004 4.76367 74.9081 4.76367 73.5801H2.76367C2.76367 74.8887 2.73937 75.9413 2.69216 76.744L4.6887 76.8615ZM4.76367 73.5801C4.76367 71.9704 4.61363 69.5162 4.32023 66.2399L2.3282 66.4183C2.62074 69.685 2.76367 72.0648 2.76367 73.5801H4.76367ZM4.32145 66.2547C4.07768 62.9882 3.95801 60.5773 3.95801 59.0049H1.95801C1.95801 60.6551 2.08248 63.1271 2.32699 66.4035L4.32145 66.2547ZM3.95801 59.0049C3.95801 56.9334 4.05452 55.1718 4.24275 53.7129L2.2592 53.457C2.05681 55.0255 1.95801 56.8771 1.95801 59.0049H3.95801ZM54.96 21.9697H53.4219V23.9697H54.96V21.9697ZM54.4218 22.9611C54.3703 16.9882 51.9731 12.4529 47.2077 9.52041L46.1595 11.2237C50.2808 13.7599 52.3757 17.6231 52.4219 22.9783L54.4218 22.9611ZM47.2093 9.5214C42.6748 6.71921 37.2103 5.34375 30.8633 5.34375V7.34375C36.9186 7.34375 42.0009 8.65384 46.1579 11.2227L47.2093 9.5214ZM30.8633 5.34375C25.7929 5.34375 21.5329 6.42343 18.1533 8.65915L19.2568 10.3272C22.2249 8.36368 26.0704 7.34375 30.8633 7.34375V5.34375ZM18.1592 8.6553C14.7525 10.8748 12.8711 13.6659 12.8711 17.0371H14.8711C14.8711 14.5489 16.2124 12.3107 19.251 10.331L18.1592 8.6553ZM12.8711 17.0371C12.8711 20.4846 14.2963 23.2545 17.0999 25.2494L18.2594 23.6198C15.9849 22.0014 14.8711 19.8396 14.8711 17.0371H12.8711ZM17.0845 25.2381C19.8589 27.2932 25.1953 29.654 32.9534 32.3376L33.6072 30.4475C25.8379 27.76 20.7739 25.4821 18.2749 23.631L17.0845 25.2381ZM32.9545 32.338C40.1792 34.8276 45.1633 36.8313 47.9646 38.3507L48.9182 36.5926C45.9578 34.987 40.8345 32.938 33.6061 30.4471L32.9545 32.338ZM47.9558 38.3458C50.8779 39.9693 53.3235 42.2922 55.2919 45.3386L56.9718 44.2532C54.8386 40.9519 52.1572 38.3921 48.927 36.5975L47.9558 38.3458ZM55.2845 45.327C57.2317 48.4333 58.208 51.8856 58.208 55.709H60.208C60.208 51.5245 59.1335 47.7015 56.9791 44.2648L55.2845 45.327ZM58.208 55.709C58.208 61.5297 56.0849 66.0113 51.8588 69.2728L53.0807 70.8561C57.8389 67.184 60.208 62.0953 60.208 55.709H58.208ZM53.28 70.6506C55.1089 68.1224 55.96 64.6638 55.96 60.3965H53.96C53.96 64.4299 53.1509 67.4167 51.6595 69.4783L53.28 70.6506ZM55.96 60.3965C55.96 56.3298 55.0176 52.6823 53.1087 49.4836L51.3913 50.5086C53.0957 53.3646 53.96 56.6506 53.96 60.3965H55.96ZM53.1003 49.4697C51.1254 46.2796 48.681 43.7271 45.7632 41.8331L44.6743 43.5107C47.3229 45.2299 49.566 47.5602 51.3997 50.5224L53.1003 49.4697ZM45.7668 41.8354C42.8203 39.905 38.1027 37.8948 31.6878 35.7891L31.0641 37.6894C37.4423 39.783 41.9531 41.7278 44.6707 43.5083L45.7668 41.8354ZM31.6893 35.7896C22.0522 32.6098 15.9372 29.944 13.1612 27.8158L11.9443 29.403C15.0277 31.7669 21.4615 34.521 31.0626 37.6889L31.6893 35.7896ZM13.1694 27.8221C10.5507 25.7708 9.1582 22.5424 9.1582 17.916H7.1582C7.1582 22.9576 8.69543 26.8581 11.9361 29.3966L13.1694 27.8221ZM9.1582 17.916C9.1582 12.6697 11.2504 8.60614 15.4735 5.62239L14.3195 3.98894C9.55823 7.35285 7.1582 12.0295 7.1582 17.916H9.1582ZM15.4615 5.63075C19.7218 2.71335 25.865 1.19141 34.0127 1.19141V-0.808594C25.6565 -0.808594 19.0555 0.745635 14.3315 3.98058L15.4615 5.63075ZM34.0127 1.19141C39.5209 1.19141 46.2975 2.15063 54.3595 4.09327L54.828 2.14892C46.679 0.185307 39.7349 -0.808594 34.0127 -0.808594V1.19141ZM53.5938 3.12109V3.63379H55.5938V3.12109H53.5938ZM53.5951 3.68635L53.7416 6.46955L55.7389 6.36443L55.5924 3.58123L53.5951 3.68635ZM53.7402 6.41699C53.7402 7.90256 53.7897 9.67711 53.8879 11.738L55.8856 11.6429C55.7884 9.60218 55.7402 7.86111 55.7402 6.41699H53.7402ZM53.8884 11.7492C54.0341 14.2254 54.1064 16.4024 54.1064 18.2822H56.1064C56.1064 16.3534 56.0323 14.1359 55.885 11.6317L53.8884 11.7492ZM54.1064 18.2822C54.1064 19.5283 54.0585 21.072 53.9613 22.9172L55.9586 23.0223C56.0568 21.1565 56.1064 19.5753 56.1064 18.2822H54.1064ZM83.8906 1.80273H84.8906V0.830898L83.9192 0.803142L83.8906 1.80273ZM81.1807 82.9551L80.2206 82.6754L80.2194 82.6794L81.1807 82.9551ZM51.0781 108.004H50.0781V109.152L51.215 108.994L51.0781 108.004ZM51.0781 106.759L50.6445 105.858L50.0781 106.13V106.759H51.0781ZM66.9717 95.5527L66.2481 94.8624L66.2444 94.8664L66.9717 95.5527ZM75.541 81.4902L76.4924 81.7983L76.4942 81.7927L75.541 81.4902ZM75.9805 7.00293L76.8429 6.49673L76.8349 6.48305L76.8264 6.46963L75.9805 7.00293ZM68.3633 2.46191H67.3633V3.27108L68.1546 3.43991L68.3633 2.46191ZM68.3633 0.923828L68.4335 -0.0737014L67.3633 -0.149071V0.923828H68.3633ZM105.131 0.923828H106.131V-0.152986L105.057 -0.0734396L105.131 0.923828ZM105.131 2.24219L105.308 3.22646L106.131 3.07868V2.24219H105.131ZM97.3672 6.56348L96.5181 6.03515L96.513 6.04353L97.3672 6.56348ZM96.415 72.042L97.3891 71.8159L97.3853 71.7995L97.381 71.7833L96.415 72.042ZM100.004 79V80H102.288L100.739 78.3217L100.004 79ZM84.8428 86.9834L83.9693 86.4965L85.6074 87.6279L84.8428 86.9834ZM88.3584 77.0225L89.3414 77.206L89.342 77.2026L88.3584 77.0225ZM89.3105 1.80273L89.2859 0.803039L88.3105 0.827121V1.80273H89.3105ZM82.8906 1.80273V58.6387H84.8906V1.80273H82.8906ZM82.8906 58.6387C82.8906 68.5997 81.9904 76.6006 80.2206 82.6754L82.1407 83.2348C83.9842 76.9073 84.8906 68.6972 84.8906 58.6387H82.8906ZM80.2194 82.6794C78.4713 88.7742 74.974 94.1053 69.6867 98.6782L70.995 100.191C76.5474 95.3888 80.2768 89.7336 82.1419 83.2308L80.2194 82.6794ZM69.6867 98.6782C64.4198 103.233 58.1809 106.013 50.9413 107.013L51.215 108.994C58.8191 107.944 65.422 105.011 70.995 100.191L69.6867 98.6782ZM52.0781 108.004V106.759H50.0781V108.004H52.0781ZM51.5117 107.66C58.094 104.493 63.4981 100.69 67.6989 96.2391L66.2444 94.8664C62.2421 99.1069 57.0506 102.775 50.6445 105.858L51.5117 107.66ZM67.6952 96.243C71.8422 91.8962 74.7819 87.0806 76.4924 81.7983L74.5896 81.1822C72.9798 86.1538 70.2066 90.7132 66.2481 94.8625L67.6952 96.243ZM76.4942 81.7927C78.148 76.5808 78.958 69.9256 78.958 61.8613H76.958C76.958 69.8127 76.1567 76.2435 74.5878 81.1878L76.4942 81.7927ZM78.958 61.8613V18.1357H76.958V61.8613H78.958ZM78.958 18.1357C78.958 12.926 78.3036 8.98534 76.8429 6.49673L75.1181 7.50913C76.2941 9.51271 76.958 12.9939 76.958 18.1357H78.958ZM76.8264 6.46963C75.216 3.91527 72.3878 2.29797 68.5719 1.48392L68.1546 3.43991C71.663 4.18835 73.9129 5.59841 75.1345 7.53623L76.8264 6.46963ZM69.3633 2.46191V0.923828H67.3633V2.46191H69.3633ZM68.293 1.92136C75.2294 2.40984 80.4223 2.70405 83.8621 2.80233L83.9192 0.803142C80.523 0.706108 75.3643 0.414382 68.4335 -0.0737014L68.293 1.92136ZM104.131 0.923828V2.24219H106.131V0.923828H104.131ZM104.954 1.25792C101.006 1.96661 98.0959 3.49953 96.5181 6.03517L98.2162 7.09178C99.3729 5.2329 101.639 3.88495 105.308 3.22646L104.954 1.25792ZM96.513 6.04353C95.0011 8.52736 94.3164 12.2439 94.3164 17.0371H96.3164C96.3164 12.3577 96.9989 9.09178 98.2214 7.08342L96.513 6.04353ZM94.3164 17.0371V57.833H96.3164V17.0371H94.3164ZM94.3164 57.833C94.3164 64.5718 94.6792 69.4265 95.4491 72.3007L97.381 71.7833C96.686 69.1888 96.3164 64.5708 96.3164 57.833H94.3164ZM95.4409 72.2681C96.1116 75.1569 97.384 77.6361 99.2691 79.6783L100.739 78.3217C99.1082 76.5553 97.988 74.3958 97.3891 71.8159L95.4409 72.2681ZM100.004 78C96.5193 78 93.7029 78.469 91.6465 79.4972L92.541 81.286C94.1956 80.4587 96.6526 80 100.004 80V78ZM91.6465 79.4972C89.5004 80.5702 86.974 82.9031 84.0781 86.3389L85.6074 87.6279C88.4732 84.2277 90.7809 82.1661 92.541 81.286L91.6465 79.4972ZM85.7163 87.4703C87.4337 84.3889 88.6398 80.9646 89.3414 77.206L87.3754 76.839C86.7098 80.4045 85.5721 83.6209 83.9693 86.4965L85.7163 87.4703ZM89.342 77.2026C89.9947 73.638 90.3105 67.6981 90.3105 59.4443H88.3105C88.3105 67.6944 87.9916 73.4733 87.3748 76.8424L89.342 77.2026ZM90.3105 59.4443V1.80273H88.3105V59.4443H90.3105ZM89.3352 2.80243C93.3139 2.70419 98.6058 2.4099 105.205 1.9211L105.057 -0.0734396C98.4723 0.414315 93.2173 0.705966 89.2859 0.803039L89.3352 2.80243Z" fill="#F8C25A" fill-opacity="0.27"/>
<path d="M-4 97.75V96.75H-5V97.75H-4ZM110.111 97.75H111.111V96.75H110.111V97.75ZM110.111 105.221V106.221H111.111V105.221H110.111ZM-4 105.221H-5V106.221H-4V105.221ZM-4 98.75H110.111V96.75H-4V98.75ZM109.111 97.75V105.221H111.111V97.75H109.111ZM110.111 104.221H-4V106.221H110.111V104.221ZM-3 105.221V97.75H-5V105.221H-3Z" fill="#F8C25A" fill-opacity="0.27"/>
</g>
<defs>
<filter id="filter0_d_15_119" x="0.0283203" y="0.191406" width="125.103" height="118.812" filterUnits="userSpaceOnUse" color-interpolation-filters="sRGB">
<feFlood flood-opacity="0" result="BackgroundImageFix"/>
<feColorMatrix in="SourceAlpha" type="matrix" values="0 0 0 0 0 0 0 0 0 0 0 0 0 0 0 0 0 0 127 0" result="hardAlpha"/>
<feOffset dx="16" dy="7"/>
<feGaussianBlur stdDeviation="2"/>
<feComposite in2="hardAlpha" operator="out"/>
<feColorMatrix type="matrix" values="0 0 0 0 0 0 0 0 0 0 0 0 0 0 0 0 0 0 0.23 0"/>
<feBlend mode="normal" in2="BackgroundImageFix" result="effect1_dropShadow_15_119"/>
<feBlend mode="normal" in="SourceGraphic" in2="effect1_dropShadow_15_119" result="shape"/>
</filter>
<radialGradient id="paint0_angular_15_119" cx="0" cy="0" r="1" gradientUnits="userSpaceOnUse" gradientTransform="translate(53.5 51.5) rotate(90) scale(79.5 57.5)">
<stop offset="0.195833" stop-color="#4365DB" stop-opacity="0.91"/>
<stop offset="0.451042" stop-color="#59FFB9" stop-opacity="0.82"/>
<stop offset="0.622917" stop-color="#E7B75B" stop-opacity="0.979429"/>
<stop offset="0.857292" stop-color="#EF3C3C"/>
<stop offset="0.937946" stop-color="#C94A4A" stop-opacity="0.02"/>
</radialGradient>
<radialGradient id="paint1_angular_15_119" cx="0" cy="0" r="1" gradientUnits="userSpaceOnUse" gradientTransform="translate(53.5 51.5) rotate(90) scale(79.5 57.5)">
<stop offset="0.195833" stop-color="#4365DB" stop-opacity="0.91"/>
<stop offset="0.451042" stop-color="#59FFB9" stop-opacity="0.82"/>
<stop offset="0.622917" stop-color="#E7B75B" stop-opacity="0.979429"/>
<stop offset="0.857292" stop-color="#EF3C3C"/>
<stop offset="0.937946" stop-color="#C94A4A" stop-opacity="0.02"/>
</radialGradient>
</defs>
</svg>
